<mxfile host="app.diagrams.net" modified="2023-11-02T02:11:43.843Z" agent="Mozilla/5.0 (Windows NT 10.0; Win64; x64) AppleWebKit/537.36 (KHTML, like Gecko) Chrome/118.0.0.0 Safari/537.36" etag="MY7U7LQV08zSoFSlxwOq" version="22.0.8" type="github" pages="3">
  <diagram id="R2lEEEUBdFMjLlhIrx00" name="DER ORIGINAL">
    <mxGraphModel dx="1900" dy="1666" grid="1" gridSize="10" guides="1" tooltips="1" connect="1" arrows="1" fold="1" page="1" pageScale="1" pageWidth="850" pageHeight="1100" math="0" shadow="0" extFonts="Permanent Marker^https://fonts.googleapis.com/css?family=Permanent+Marker">
      <root>
        <mxCell id="0" />
        <mxCell id="1" parent="0" />
        <mxCell id="C-vyLk0tnHw3VtMMgP7b-1" value="" style="edgeStyle=entityRelationEdgeStyle;endArrow=ERzeroToMany;startArrow=ERone;endFill=1;startFill=0;" parent="1" source="C-vyLk0tnHw3VtMMgP7b-24" target="C-vyLk0tnHw3VtMMgP7b-6" edge="1">
          <mxGeometry width="100" height="100" relative="1" as="geometry">
            <mxPoint x="340" y="720" as="sourcePoint" />
            <mxPoint x="440" y="620" as="targetPoint" />
          </mxGeometry>
        </mxCell>
        <mxCell id="C-vyLk0tnHw3VtMMgP7b-2" value="orders" style="shape=table;startSize=30;container=1;collapsible=1;childLayout=tableLayout;fixedRows=1;rowLines=0;fontStyle=1;align=center;resizeLast=1;labelBackgroundColor=#eef2f6;labelBorderColor=default;whiteSpace=wrap;" parent="1" vertex="1">
          <mxGeometry x="460" y="50" width="250" height="100" as="geometry" />
        </mxCell>
        <mxCell id="C-vyLk0tnHw3VtMMgP7b-3" value="" style="shape=partialRectangle;collapsible=0;dropTarget=0;pointerEvents=0;fillColor=none;points=[[0,0.5],[1,0.5]];portConstraint=eastwest;top=0;left=0;right=0;bottom=1;" parent="C-vyLk0tnHw3VtMMgP7b-2" vertex="1">
          <mxGeometry y="30" width="250" height="30" as="geometry" />
        </mxCell>
        <mxCell id="C-vyLk0tnHw3VtMMgP7b-4" value="PK" style="shape=partialRectangle;overflow=hidden;connectable=0;fillColor=none;top=0;left=0;bottom=0;right=0;fontStyle=1;" parent="C-vyLk0tnHw3VtMMgP7b-3" vertex="1">
          <mxGeometry width="30" height="30" as="geometry">
            <mxRectangle width="30" height="30" as="alternateBounds" />
          </mxGeometry>
        </mxCell>
        <mxCell id="C-vyLk0tnHw3VtMMgP7b-5" value="order_idÂ int NOT NULL " style="shape=partialRectangle;overflow=hidden;connectable=0;fillColor=none;top=0;left=0;bottom=0;right=0;align=left;spacingLeft=6;fontStyle=5;" parent="C-vyLk0tnHw3VtMMgP7b-3" vertex="1">
          <mxGeometry x="30" width="220" height="30" as="geometry">
            <mxRectangle width="220" height="30" as="alternateBounds" />
          </mxGeometry>
        </mxCell>
        <mxCell id="C-vyLk0tnHw3VtMMgP7b-6" value="" style="shape=partialRectangle;collapsible=0;dropTarget=0;pointerEvents=0;fillColor=none;points=[[0,0.5],[1,0.5]];portConstraint=eastwest;top=0;left=0;right=0;bottom=0;" parent="C-vyLk0tnHw3VtMMgP7b-2" vertex="1">
          <mxGeometry y="60" width="250" height="30" as="geometry" />
        </mxCell>
        <mxCell id="C-vyLk0tnHw3VtMMgP7b-7" value="FK1" style="shape=partialRectangle;overflow=hidden;connectable=0;fillColor=none;top=0;left=0;bottom=0;right=0;" parent="C-vyLk0tnHw3VtMMgP7b-6" vertex="1">
          <mxGeometry width="30" height="30" as="geometry">
            <mxRectangle width="30" height="30" as="alternateBounds" />
          </mxGeometry>
        </mxCell>
        <mxCell id="C-vyLk0tnHw3VtMMgP7b-8" value="product_id int NOT NULL" style="shape=partialRectangle;overflow=hidden;connectable=0;fillColor=none;top=0;left=0;bottom=0;right=0;align=left;spacingLeft=6;" parent="C-vyLk0tnHw3VtMMgP7b-6" vertex="1">
          <mxGeometry x="30" width="220" height="30" as="geometry">
            <mxRectangle width="220" height="30" as="alternateBounds" />
          </mxGeometry>
        </mxCell>
        <mxCell id="iSsjDrsVo5t15SOsRyyK-41" value="&lt;div style=&quot;color: rgb(191, 189, 182); background-color: rgb(13, 16, 23); font-family: Consolas, &amp;quot;Courier New&amp;quot;, monospace; font-weight: normal; font-size: 14px; line-height: 19px;&quot;&gt;pod_products&lt;/div&gt;" style="shape=table;startSize=30;container=1;collapsible=1;childLayout=tableLayout;fixedRows=1;rowLines=0;fontStyle=1;align=center;resizeLast=1;html=1;" parent="1" vertex="1">
          <mxGeometry x="40" y="310" width="250" height="180" as="geometry" />
        </mxCell>
        <mxCell id="iSsjDrsVo5t15SOsRyyK-42" value="" style="shape=tableRow;horizontal=0;startSize=0;swimlaneHead=0;swimlaneBody=0;fillColor=none;collapsible=0;dropTarget=0;points=[[0,0.5],[1,0.5]];portConstraint=eastwest;top=0;left=0;right=0;bottom=1;" parent="iSsjDrsVo5t15SOsRyyK-41" vertex="1">
          <mxGeometry y="30" width="250" height="30" as="geometry" />
        </mxCell>
        <mxCell id="iSsjDrsVo5t15SOsRyyK-43" value="PK" style="shape=partialRectangle;connectable=0;fillColor=none;top=0;left=0;bottom=0;right=0;fontStyle=1;overflow=hidden;whiteSpace=wrap;html=1;" parent="iSsjDrsVo5t15SOsRyyK-42" vertex="1">
          <mxGeometry width="30" height="30" as="geometry">
            <mxRectangle width="30" height="30" as="alternateBounds" />
          </mxGeometry>
        </mxCell>
        <mxCell id="iSsjDrsVo5t15SOsRyyK-44" value="pod_products_id INT NOT NULL" style="shape=partialRectangle;connectable=0;fillColor=none;top=0;left=0;bottom=0;right=0;align=left;spacingLeft=6;fontStyle=5;overflow=hidden;whiteSpace=wrap;html=1;" parent="iSsjDrsVo5t15SOsRyyK-42" vertex="1">
          <mxGeometry x="30" width="220" height="30" as="geometry">
            <mxRectangle width="220" height="30" as="alternateBounds" />
          </mxGeometry>
        </mxCell>
        <mxCell id="iSsjDrsVo5t15SOsRyyK-48" value="" style="shape=tableRow;horizontal=0;startSize=0;swimlaneHead=0;swimlaneBody=0;fillColor=none;collapsible=0;dropTarget=0;points=[[0,0.5],[1,0.5]];portConstraint=eastwest;top=0;left=0;right=0;bottom=0;" parent="iSsjDrsVo5t15SOsRyyK-41" vertex="1">
          <mxGeometry y="60" width="250" height="30" as="geometry" />
        </mxCell>
        <mxCell id="iSsjDrsVo5t15SOsRyyK-49" value="" style="shape=partialRectangle;connectable=0;fillColor=none;top=0;left=0;bottom=0;right=0;editable=1;overflow=hidden;whiteSpace=wrap;html=1;" parent="iSsjDrsVo5t15SOsRyyK-48" vertex="1">
          <mxGeometry width="30" height="30" as="geometry">
            <mxRectangle width="30" height="30" as="alternateBounds" />
          </mxGeometry>
        </mxCell>
        <mxCell id="iSsjDrsVo5t15SOsRyyK-50" value="pod_type_id int NOT NULL" style="shape=partialRectangle;connectable=0;fillColor=none;top=0;left=0;bottom=0;right=0;align=left;spacingLeft=6;overflow=hidden;whiteSpace=wrap;html=1;" parent="iSsjDrsVo5t15SOsRyyK-48" vertex="1">
          <mxGeometry x="30" width="220" height="30" as="geometry">
            <mxRectangle width="220" height="30" as="alternateBounds" />
          </mxGeometry>
        </mxCell>
        <mxCell id="nJUtHc5osxBCRqMSEV-0-8" value="" style="shape=tableRow;horizontal=0;startSize=0;swimlaneHead=0;swimlaneBody=0;fillColor=none;collapsible=0;dropTarget=0;points=[[0,0.5],[1,0.5]];portConstraint=eastwest;top=0;left=0;right=0;bottom=0;" vertex="1" parent="iSsjDrsVo5t15SOsRyyK-41">
          <mxGeometry y="90" width="250" height="30" as="geometry" />
        </mxCell>
        <mxCell id="nJUtHc5osxBCRqMSEV-0-9" value="" style="shape=partialRectangle;connectable=0;fillColor=none;top=0;left=0;bottom=0;right=0;editable=1;overflow=hidden;whiteSpace=wrap;html=1;" vertex="1" parent="nJUtHc5osxBCRqMSEV-0-8">
          <mxGeometry width="30" height="30" as="geometry">
            <mxRectangle width="30" height="30" as="alternateBounds" />
          </mxGeometry>
        </mxCell>
        <mxCell id="nJUtHc5osxBCRqMSEV-0-10" value="json_info" style="shape=partialRectangle;connectable=0;fillColor=none;top=0;left=0;bottom=0;right=0;align=left;spacingLeft=6;overflow=hidden;whiteSpace=wrap;html=1;" vertex="1" parent="nJUtHc5osxBCRqMSEV-0-8">
          <mxGeometry x="30" width="220" height="30" as="geometry">
            <mxRectangle width="220" height="30" as="alternateBounds" />
          </mxGeometry>
        </mxCell>
        <mxCell id="iSsjDrsVo5t15SOsRyyK-28" value="" style="edgeStyle=entityRelationEdgeStyle;fontSize=12;html=1;endArrow=ERoneToMany;rounded=0;exitX=1.013;exitY=0.173;exitDx=0;exitDy=0;entryX=1;entryY=0;entryDx=0;entryDy=0;exitPerimeter=0;entryPerimeter=0;" parent="1" source="iSsjDrsVo5t15SOsRyyK-16" target="iSsjDrsVo5t15SOsRyyK-48" edge="1">
          <mxGeometry width="100" height="100" relative="1" as="geometry">
            <mxPoint x="220" y="315" as="sourcePoint" />
            <mxPoint x="520" y="340" as="targetPoint" />
            <Array as="points">
              <mxPoint x="320" y="335" />
              <mxPoint x="330" y="345" />
              <mxPoint x="280" y="340" />
              <mxPoint x="310" y="185" />
            </Array>
          </mxGeometry>
        </mxCell>
        <mxCell id="iSsjDrsVo5t15SOsRyyK-54" value="Este es el diagrama como lo habiamos hecho originalmente" style="shape=note;whiteSpace=wrap;html=1;backgroundOutline=1;fontColor=#000000;darkOpacity=0.05;fillColor=#FFF9B2;strokeColor=none;fillStyle=solid;direction=west;gradientDirection=north;gradientColor=#FFF2A1;shadow=1;size=20;pointerEvents=1;" parent="1" vertex="1">
          <mxGeometry x="-90" y="-50" width="140" height="160" as="geometry" />
        </mxCell>
        <mxCell id="iSsjDrsVo5t15SOsRyyK-37" value="" style="group" parent="1" vertex="1" connectable="0">
          <mxGeometry x="440" y="120" width="320" height="310" as="geometry" />
        </mxCell>
        <mxCell id="iSsjDrsVo5t15SOsRyyK-15" value="pod_type" style="shape=table;startSize=30;container=1;collapsible=1;childLayout=tableLayout;fixedRows=1;rowLines=0;fontStyle=1;align=center;resizeLast=1;html=1;labelBackgroundColor=#f0e6e6;labelBorderColor=default;" parent="iSsjDrsVo5t15SOsRyyK-37" vertex="1">
          <mxGeometry y="220" width="180" height="90" as="geometry" />
        </mxCell>
        <mxCell id="iSsjDrsVo5t15SOsRyyK-16" value="" style="shape=tableRow;horizontal=0;startSize=0;swimlaneHead=0;swimlaneBody=0;fillColor=none;collapsible=0;dropTarget=0;points=[[0,0.5],[1,0.5]];portConstraint=eastwest;top=0;left=0;right=0;bottom=1;" parent="iSsjDrsVo5t15SOsRyyK-15" vertex="1">
          <mxGeometry y="30" width="180" height="30" as="geometry" />
        </mxCell>
        <mxCell id="iSsjDrsVo5t15SOsRyyK-17" value="PK" style="shape=partialRectangle;connectable=0;fillColor=none;top=0;left=0;bottom=0;right=0;fontStyle=1;overflow=hidden;whiteSpace=wrap;html=1;" parent="iSsjDrsVo5t15SOsRyyK-16" vertex="1">
          <mxGeometry width="30" height="30" as="geometry">
            <mxRectangle width="30" height="30" as="alternateBounds" />
          </mxGeometry>
        </mxCell>
        <mxCell id="iSsjDrsVo5t15SOsRyyK-18" value="podt_type_id" style="shape=partialRectangle;connectable=0;fillColor=none;top=0;left=0;bottom=0;right=0;align=left;spacingLeft=6;fontStyle=5;overflow=hidden;whiteSpace=wrap;html=1;" parent="iSsjDrsVo5t15SOsRyyK-16" vertex="1">
          <mxGeometry x="30" width="150" height="30" as="geometry">
            <mxRectangle width="150" height="30" as="alternateBounds" />
          </mxGeometry>
        </mxCell>
        <mxCell id="iSsjDrsVo5t15SOsRyyK-19" value="" style="shape=tableRow;horizontal=0;startSize=0;swimlaneHead=0;swimlaneBody=0;fillColor=none;collapsible=0;dropTarget=0;points=[[0,0.5],[1,0.5]];portConstraint=eastwest;top=0;left=0;right=0;bottom=0;" parent="iSsjDrsVo5t15SOsRyyK-15" vertex="1">
          <mxGeometry y="60" width="180" height="30" as="geometry" />
        </mxCell>
        <mxCell id="iSsjDrsVo5t15SOsRyyK-20" value="" style="shape=partialRectangle;connectable=0;fillColor=none;top=0;left=0;bottom=0;right=0;editable=1;overflow=hidden;whiteSpace=wrap;html=1;" parent="iSsjDrsVo5t15SOsRyyK-19" vertex="1">
          <mxGeometry width="30" height="30" as="geometry">
            <mxRectangle width="30" height="30" as="alternateBounds" />
          </mxGeometry>
        </mxCell>
        <mxCell id="iSsjDrsVo5t15SOsRyyK-21" value="name" style="shape=partialRectangle;connectable=0;fillColor=none;top=0;left=0;bottom=0;right=0;align=left;spacingLeft=6;overflow=hidden;whiteSpace=wrap;html=1;" parent="iSsjDrsVo5t15SOsRyyK-19" vertex="1">
          <mxGeometry x="30" width="150" height="30" as="geometry">
            <mxRectangle width="150" height="30" as="alternateBounds" />
          </mxGeometry>
        </mxCell>
        <mxCell id="nJUtHc5osxBCRqMSEV-0-6" value="pod type es el tipo de producto, ejemplo camiseta cuello V, mug, case celular, etc" style="shape=note;whiteSpace=wrap;html=1;backgroundOutline=1;fontColor=#000000;darkOpacity=0.05;fillColor=#FFF9B2;strokeColor=none;fillStyle=solid;direction=west;gradientDirection=north;gradientColor=#FFF2A1;shadow=1;size=20;pointerEvents=1;" vertex="1" parent="iSsjDrsVo5t15SOsRyyK-37">
          <mxGeometry x="190" y="180" width="140" height="160" as="geometry" />
        </mxCell>
        <mxCell id="C-vyLk0tnHw3VtMMgP7b-23" value="products" style="shape=table;startSize=30;container=1;collapsible=1;childLayout=tableLayout;fixedRows=1;rowLines=0;fontStyle=1;align=center;resizeLast=1;fontColor=#e9e7d8;labelBackgroundColor=default;whiteSpace=wrap;" parent="1" vertex="1">
          <mxGeometry x="50" y="50" width="260" height="120" as="geometry" />
        </mxCell>
        <mxCell id="iSsjDrsVo5t15SOsRyyK-38" value="" style="shape=partialRectangle;collapsible=0;dropTarget=0;pointerEvents=0;fillColor=none;points=[[0,0.5],[1,0.5]];portConstraint=eastwest;top=0;left=0;right=0;bottom=1;" parent="C-vyLk0tnHw3VtMMgP7b-23" vertex="1">
          <mxGeometry y="30" width="260" height="30" as="geometry" />
        </mxCell>
        <mxCell id="iSsjDrsVo5t15SOsRyyK-39" value="PK" style="shape=partialRectangle;overflow=hidden;connectable=0;fillColor=none;top=0;left=0;bottom=0;right=0;fontStyle=1;" parent="iSsjDrsVo5t15SOsRyyK-38" vertex="1">
          <mxGeometry width="30" height="30" as="geometry">
            <mxRectangle width="30" height="30" as="alternateBounds" />
          </mxGeometry>
        </mxCell>
        <mxCell id="iSsjDrsVo5t15SOsRyyK-40" value="product_id int NOT NULL " style="shape=partialRectangle;overflow=hidden;connectable=0;fillColor=none;top=0;left=0;bottom=0;right=0;align=left;spacingLeft=6;fontStyle=5;" parent="iSsjDrsVo5t15SOsRyyK-38" vertex="1">
          <mxGeometry x="30" width="230" height="30" as="geometry">
            <mxRectangle width="230" height="30" as="alternateBounds" />
          </mxGeometry>
        </mxCell>
        <mxCell id="C-vyLk0tnHw3VtMMgP7b-24" value="" style="shape=partialRectangle;collapsible=0;dropTarget=0;pointerEvents=0;fillColor=none;points=[[0,0.5],[1,0.5]];portConstraint=eastwest;top=0;left=0;right=0;bottom=1;" parent="C-vyLk0tnHw3VtMMgP7b-23" vertex="1">
          <mxGeometry y="60" width="260" height="30" as="geometry" />
        </mxCell>
        <mxCell id="C-vyLk0tnHw3VtMMgP7b-25" value="PK" style="shape=partialRectangle;overflow=hidden;connectable=0;fillColor=none;top=0;left=0;bottom=0;right=0;fontStyle=1;" parent="C-vyLk0tnHw3VtMMgP7b-24" vertex="1">
          <mxGeometry width="30" height="30" as="geometry">
            <mxRectangle width="30" height="30" as="alternateBounds" />
          </mxGeometry>
        </mxCell>
        <mxCell id="C-vyLk0tnHw3VtMMgP7b-26" value="product_id int NOT NULL " style="shape=partialRectangle;overflow=hidden;connectable=0;fillColor=none;top=0;left=0;bottom=0;right=0;align=left;spacingLeft=6;fontStyle=5;" parent="C-vyLk0tnHw3VtMMgP7b-24" vertex="1">
          <mxGeometry x="30" width="230" height="30" as="geometry">
            <mxRectangle width="230" height="30" as="alternateBounds" />
          </mxGeometry>
        </mxCell>
        <mxCell id="C-vyLk0tnHw3VtMMgP7b-27" value="" style="shape=partialRectangle;collapsible=0;dropTarget=0;pointerEvents=0;fillColor=none;points=[[0,0.5],[1,0.5]];portConstraint=eastwest;top=0;left=0;right=0;bottom=0;" parent="C-vyLk0tnHw3VtMMgP7b-23" vertex="1">
          <mxGeometry y="90" width="260" height="30" as="geometry" />
        </mxCell>
        <mxCell id="C-vyLk0tnHw3VtMMgP7b-28" value="" style="shape=partialRectangle;overflow=hidden;connectable=0;fillColor=none;top=0;left=0;bottom=0;right=0;" parent="C-vyLk0tnHw3VtMMgP7b-27" vertex="1">
          <mxGeometry width="30" height="30" as="geometry">
            <mxRectangle width="30" height="30" as="alternateBounds" />
          </mxGeometry>
        </mxCell>
        <mxCell id="C-vyLk0tnHw3VtMMgP7b-29" value="pod_product_id int NULL" style="shape=partialRectangle;overflow=hidden;connectable=0;fillColor=none;top=0;left=0;bottom=0;right=0;align=left;spacingLeft=6;" parent="C-vyLk0tnHw3VtMMgP7b-27" vertex="1">
          <mxGeometry x="30" width="230" height="30" as="geometry">
            <mxRectangle width="230" height="30" as="alternateBounds" />
          </mxGeometry>
        </mxCell>
        <mxCell id="nJUtHc5osxBCRqMSEV-0-2" value="" style="edgeStyle=entityRelationEdgeStyle;fontSize=12;html=1;endArrow=ERmandOne;startArrow=ERmandOne;rounded=0;exitX=1;exitY=0.5;exitDx=0;exitDy=0;" edge="1" parent="1" source="iSsjDrsVo5t15SOsRyyK-42" target="C-vyLk0tnHw3VtMMgP7b-27">
          <mxGeometry width="100" height="100" relative="1" as="geometry">
            <mxPoint x="140" y="395" as="sourcePoint" />
            <mxPoint x="40" y="135" as="targetPoint" />
            <Array as="points">
              <mxPoint x="-60" y="555" />
            </Array>
          </mxGeometry>
        </mxCell>
        <mxCell id="nJUtHc5osxBCRqMSEV-0-7" value="pod product es una tabla que almacena informacion que solo tienen los productos de tipo pod&lt;br&gt;" style="shape=note;whiteSpace=wrap;html=1;backgroundOutline=1;fontColor=#000000;darkOpacity=0.05;fillColor=#FFF9B2;strokeColor=none;fillStyle=solid;direction=west;gradientDirection=north;gradientColor=#FFF2A1;shadow=1;size=20;pointerEvents=1;" vertex="1" parent="1">
          <mxGeometry x="-120" y="300" width="140" height="160" as="geometry" />
        </mxCell>
      </root>
    </mxGraphModel>
  </diagram>
  <diagram name="DER NUEVO" id="g1BEx79rfv-5NFo7yYWh">
    <mxGraphModel dx="2465" dy="3071" grid="0" gridSize="10" guides="0" tooltips="1" connect="1" arrows="1" fold="1" page="1" pageScale="1" pageWidth="850" pageHeight="1100" math="0" shadow="0" extFonts="Permanent Marker^https://fonts.googleapis.com/css?family=Permanent+Marker">
      <root>
        <mxCell id="xj4MMqVDuvbluAutr-h8-0" />
        <mxCell id="xj4MMqVDuvbluAutr-h8-1" parent="xj4MMqVDuvbluAutr-h8-0" />
        <mxCell id="xj4MMqVDuvbluAutr-h8-2" value="" style="edgeStyle=entityRelationEdgeStyle;endArrow=ERzeroToMany;startArrow=ERone;endFill=1;startFill=0;" edge="1" parent="xj4MMqVDuvbluAutr-h8-1" target="xj4MMqVDuvbluAutr-h8-7">
          <mxGeometry width="100" height="100" relative="1" as="geometry">
            <mxPoint x="-400" y="-865" as="sourcePoint" />
            <mxPoint x="-270" y="-370" as="targetPoint" />
          </mxGeometry>
        </mxCell>
        <mxCell id="xj4MMqVDuvbluAutr-h8-3" value="orders" style="shape=table;startSize=30;container=1;collapsible=1;childLayout=tableLayout;fixedRows=1;rowLines=0;fontStyle=1;align=center;resizeLast=1;labelBackgroundColor=#eef2f6;labelBorderColor=default;whiteSpace=wrap;" vertex="1" parent="xj4MMqVDuvbluAutr-h8-1">
          <mxGeometry x="-336" y="-1059" width="250" height="100" as="geometry" />
        </mxCell>
        <mxCell id="xj4MMqVDuvbluAutr-h8-4" value="" style="shape=partialRectangle;collapsible=0;dropTarget=0;pointerEvents=0;fillColor=none;points=[[0,0.5],[1,0.5]];portConstraint=eastwest;top=0;left=0;right=0;bottom=1;" vertex="1" parent="xj4MMqVDuvbluAutr-h8-3">
          <mxGeometry y="30" width="250" height="30" as="geometry" />
        </mxCell>
        <mxCell id="xj4MMqVDuvbluAutr-h8-5" value="PK" style="shape=partialRectangle;overflow=hidden;connectable=0;fillColor=none;top=0;left=0;bottom=0;right=0;fontStyle=1;" vertex="1" parent="xj4MMqVDuvbluAutr-h8-4">
          <mxGeometry width="30" height="30" as="geometry">
            <mxRectangle width="30" height="30" as="alternateBounds" />
          </mxGeometry>
        </mxCell>
        <mxCell id="xj4MMqVDuvbluAutr-h8-6" value="order_idÂ int NOT NULL " style="shape=partialRectangle;overflow=hidden;connectable=0;fillColor=none;top=0;left=0;bottom=0;right=0;align=left;spacingLeft=6;fontStyle=5;" vertex="1" parent="xj4MMqVDuvbluAutr-h8-4">
          <mxGeometry x="30" width="220" height="30" as="geometry">
            <mxRectangle width="220" height="30" as="alternateBounds" />
          </mxGeometry>
        </mxCell>
        <mxCell id="xj4MMqVDuvbluAutr-h8-7" value="" style="shape=partialRectangle;collapsible=0;dropTarget=0;pointerEvents=0;fillColor=none;points=[[0,0.5],[1,0.5]];portConstraint=eastwest;top=0;left=0;right=0;bottom=0;" vertex="1" parent="xj4MMqVDuvbluAutr-h8-3">
          <mxGeometry y="60" width="250" height="30" as="geometry" />
        </mxCell>
        <mxCell id="xj4MMqVDuvbluAutr-h8-8" value="FK1" style="shape=partialRectangle;overflow=hidden;connectable=0;fillColor=none;top=0;left=0;bottom=0;right=0;" vertex="1" parent="xj4MMqVDuvbluAutr-h8-7">
          <mxGeometry width="30" height="30" as="geometry">
            <mxRectangle width="30" height="30" as="alternateBounds" />
          </mxGeometry>
        </mxCell>
        <mxCell id="xj4MMqVDuvbluAutr-h8-9" value="product_id int NOT NULL" style="shape=partialRectangle;overflow=hidden;connectable=0;fillColor=none;top=0;left=0;bottom=0;right=0;align=left;spacingLeft=6;" vertex="1" parent="xj4MMqVDuvbluAutr-h8-7">
          <mxGeometry x="30" width="220" height="30" as="geometry">
            <mxRectangle width="220" height="30" as="alternateBounds" />
          </mxGeometry>
        </mxCell>
        <mxCell id="xj4MMqVDuvbluAutr-h8-21" value="En este diagrama, el pod type se va, ya que pod type en si mismo es un producto" style="shape=note;whiteSpace=wrap;html=1;backgroundOutline=1;fontColor=#000000;darkOpacity=0.05;fillColor=#FFF9B2;strokeColor=none;fillStyle=solid;direction=west;gradientDirection=north;gradientColor=#FFF2A1;shadow=1;size=20;pointerEvents=1;" vertex="1" parent="xj4MMqVDuvbluAutr-h8-1">
          <mxGeometry x="-774" y="-1004" width="114" height="100" as="geometry" />
        </mxCell>
        <mxCell id="xj4MMqVDuvbluAutr-h8-41" value="" style="edgeStyle=entityRelationEdgeStyle;fontSize=12;html=1;endArrow=ERmandOne;startArrow=ERmandOne;rounded=0;" edge="1" parent="xj4MMqVDuvbluAutr-h8-1" source="xj4MMqVDuvbluAutr-h8-10" target="xj4MMqVDuvbluAutr-h8-38">
          <mxGeometry width="100" height="100" relative="1" as="geometry">
            <mxPoint x="-570" y="-595" as="sourcePoint" />
            <mxPoint x="-670" y="-855" as="targetPoint" />
            <Array as="points">
              <mxPoint x="-770" y="-435" />
              <mxPoint x="-330" y="-721" />
              <mxPoint x="-303" y="-705" />
              <mxPoint x="-340" y="-750" />
              <mxPoint x="-300" y="-750" />
            </Array>
          </mxGeometry>
        </mxCell>
        <mxCell id="xj4MMqVDuvbluAutr-h8-42" value="pod product es una tabla que almacena informacion que solo tienen los productos de tipo POD" style="shape=note;whiteSpace=wrap;html=1;backgroundOutline=1;fontColor=#000000;darkOpacity=0.05;fillColor=#FFF9B2;strokeColor=none;fillStyle=solid;direction=west;gradientDirection=north;gradientColor=#FFF2A1;shadow=1;size=20;pointerEvents=1;" vertex="1" parent="xj4MMqVDuvbluAutr-h8-1">
          <mxGeometry x="-86" y="-603" width="116" height="100" as="geometry" />
        </mxCell>
        <mxCell id="UhIjKmEY3d05tXCgtlMl-7" value="product_type: SIMPLE, VARIABLE, POD_TYPE, POD" style="shape=note;whiteSpace=wrap;html=1;backgroundOutline=1;fontColor=#000000;darkOpacity=0.05;fillColor=#FFF9B2;strokeColor=none;fillStyle=solid;direction=west;gradientDirection=north;gradientColor=#FFF2A1;shadow=1;size=20;pointerEvents=1;" vertex="1" parent="xj4MMqVDuvbluAutr-h8-1">
          <mxGeometry x="-775" y="-866" width="99" height="126" as="geometry" />
        </mxCell>
        <mxCell id="6vC1b3wF_2FrtxCGlfhA-0" value="disenio" style="shape=table;startSize=30;container=1;collapsible=1;childLayout=tableLayout;fixedRows=1;rowLines=0;fontStyle=1;align=center;resizeLast=1;html=1;labelBackgroundColor=default;labelBorderColor=default;" vertex="1" parent="xj4MMqVDuvbluAutr-h8-1">
          <mxGeometry x="-580" y="-415" width="180" height="120" as="geometry" />
        </mxCell>
        <mxCell id="6vC1b3wF_2FrtxCGlfhA-1" value="" style="shape=tableRow;horizontal=0;startSize=0;swimlaneHead=0;swimlaneBody=0;fillColor=none;collapsible=0;dropTarget=0;points=[[0,0.5],[1,0.5]];portConstraint=eastwest;top=0;left=0;right=0;bottom=1;" vertex="1" parent="6vC1b3wF_2FrtxCGlfhA-0">
          <mxGeometry y="30" width="180" height="30" as="geometry" />
        </mxCell>
        <mxCell id="6vC1b3wF_2FrtxCGlfhA-2" value="PK" style="shape=partialRectangle;connectable=0;fillColor=none;top=0;left=0;bottom=0;right=0;fontStyle=1;overflow=hidden;whiteSpace=wrap;html=1;" vertex="1" parent="6vC1b3wF_2FrtxCGlfhA-1">
          <mxGeometry width="30" height="30" as="geometry">
            <mxRectangle width="30" height="30" as="alternateBounds" />
          </mxGeometry>
        </mxCell>
        <mxCell id="6vC1b3wF_2FrtxCGlfhA-3" value="disenio_id" style="shape=partialRectangle;connectable=0;fillColor=none;top=0;left=0;bottom=0;right=0;align=left;spacingLeft=6;fontStyle=5;overflow=hidden;whiteSpace=wrap;html=1;" vertex="1" parent="6vC1b3wF_2FrtxCGlfhA-1">
          <mxGeometry x="30" width="150" height="30" as="geometry">
            <mxRectangle width="150" height="30" as="alternateBounds" />
          </mxGeometry>
        </mxCell>
        <mxCell id="6vC1b3wF_2FrtxCGlfhA-4" value="" style="shape=tableRow;horizontal=0;startSize=0;swimlaneHead=0;swimlaneBody=0;fillColor=none;collapsible=0;dropTarget=0;points=[[0,0.5],[1,0.5]];portConstraint=eastwest;top=0;left=0;right=0;bottom=0;" vertex="1" parent="6vC1b3wF_2FrtxCGlfhA-0">
          <mxGeometry y="60" width="180" height="30" as="geometry" />
        </mxCell>
        <mxCell id="6vC1b3wF_2FrtxCGlfhA-5" value="" style="shape=partialRectangle;connectable=0;fillColor=none;top=0;left=0;bottom=0;right=0;editable=1;overflow=hidden;whiteSpace=wrap;html=1;" vertex="1" parent="6vC1b3wF_2FrtxCGlfhA-4">
          <mxGeometry width="30" height="30" as="geometry">
            <mxRectangle width="30" height="30" as="alternateBounds" />
          </mxGeometry>
        </mxCell>
        <mxCell id="6vC1b3wF_2FrtxCGlfhA-6" value="s3_url" style="shape=partialRectangle;connectable=0;fillColor=none;top=0;left=0;bottom=0;right=0;align=left;spacingLeft=6;overflow=hidden;whiteSpace=wrap;html=1;" vertex="1" parent="6vC1b3wF_2FrtxCGlfhA-4">
          <mxGeometry x="30" width="150" height="30" as="geometry">
            <mxRectangle width="150" height="30" as="alternateBounds" />
          </mxGeometry>
        </mxCell>
        <mxCell id="6vC1b3wF_2FrtxCGlfhA-7" value="" style="shape=tableRow;horizontal=0;startSize=0;swimlaneHead=0;swimlaneBody=0;fillColor=none;collapsible=0;dropTarget=0;points=[[0,0.5],[1,0.5]];portConstraint=eastwest;top=0;left=0;right=0;bottom=0;" vertex="1" parent="6vC1b3wF_2FrtxCGlfhA-0">
          <mxGeometry y="90" width="180" height="30" as="geometry" />
        </mxCell>
        <mxCell id="6vC1b3wF_2FrtxCGlfhA-8" value="" style="shape=partialRectangle;connectable=0;fillColor=none;top=0;left=0;bottom=0;right=0;editable=1;overflow=hidden;whiteSpace=wrap;html=1;" vertex="1" parent="6vC1b3wF_2FrtxCGlfhA-7">
          <mxGeometry width="30" height="30" as="geometry">
            <mxRectangle width="30" height="30" as="alternateBounds" />
          </mxGeometry>
        </mxCell>
        <mxCell id="6vC1b3wF_2FrtxCGlfhA-9" value="precio" style="shape=partialRectangle;connectable=0;fillColor=none;top=0;left=0;bottom=0;right=0;align=left;spacingLeft=6;overflow=hidden;whiteSpace=wrap;html=1;" vertex="1" parent="6vC1b3wF_2FrtxCGlfhA-7">
          <mxGeometry x="30" width="150" height="30" as="geometry">
            <mxRectangle width="150" height="30" as="alternateBounds" />
          </mxGeometry>
        </mxCell>
        <mxCell id="6vC1b3wF_2FrtxCGlfhA-13" value="el diseÃ±o son imagenes que los diseÃ±adores pueden subir y ganar por cada venta de camiseta que use esa imagen&lt;br&gt;" style="shape=note;whiteSpace=wrap;html=1;backgroundOutline=1;fontColor=#000000;darkOpacity=0.05;fillColor=#FFF9B2;strokeColor=none;fillStyle=solid;direction=west;gradientDirection=north;gradientColor=#FFF2A1;shadow=1;size=20;pointerEvents=1;" vertex="1" parent="xj4MMqVDuvbluAutr-h8-1">
          <mxGeometry x="-372" y="-423" width="94" height="129" as="geometry" />
        </mxCell>
        <mxCell id="6vC1b3wF_2FrtxCGlfhA-15" value="products_disenio" style="shape=table;startSize=20;container=1;collapsible=1;childLayout=tableLayout;fixedRows=1;rowLines=0;fontStyle=1;align=center;resizeLast=1;html=1;labelBackgroundColor=default;labelBorderColor=default;" vertex="1" parent="xj4MMqVDuvbluAutr-h8-1">
          <mxGeometry x="-807" y="-627" width="180" height="104" as="geometry" />
        </mxCell>
        <mxCell id="6vC1b3wF_2FrtxCGlfhA-16" value="" style="shape=tableRow;horizontal=0;startSize=0;swimlaneHead=0;swimlaneBody=0;fillColor=none;collapsible=0;dropTarget=0;points=[[0,0.5],[1,0.5]];portConstraint=eastwest;top=0;left=0;right=0;bottom=1;" vertex="1" parent="6vC1b3wF_2FrtxCGlfhA-15">
          <mxGeometry y="20" width="180" height="30" as="geometry" />
        </mxCell>
        <mxCell id="6vC1b3wF_2FrtxCGlfhA-17" value="PK" style="shape=partialRectangle;connectable=0;fillColor=none;top=0;left=0;bottom=0;right=0;fontStyle=1;overflow=hidden;whiteSpace=wrap;html=1;" vertex="1" parent="6vC1b3wF_2FrtxCGlfhA-16">
          <mxGeometry width="30" height="30" as="geometry">
            <mxRectangle width="30" height="30" as="alternateBounds" />
          </mxGeometry>
        </mxCell>
        <mxCell id="6vC1b3wF_2FrtxCGlfhA-18" value="UniqueID" style="shape=partialRectangle;connectable=0;fillColor=none;top=0;left=0;bottom=0;right=0;align=left;spacingLeft=6;fontStyle=5;overflow=hidden;whiteSpace=wrap;html=1;" vertex="1" parent="6vC1b3wF_2FrtxCGlfhA-16">
          <mxGeometry x="30" width="150" height="30" as="geometry">
            <mxRectangle width="150" height="30" as="alternateBounds" />
          </mxGeometry>
        </mxCell>
        <mxCell id="6vC1b3wF_2FrtxCGlfhA-19" value="" style="shape=tableRow;horizontal=0;startSize=0;swimlaneHead=0;swimlaneBody=0;fillColor=none;collapsible=0;dropTarget=0;points=[[0,0.5],[1,0.5]];portConstraint=eastwest;top=0;left=0;right=0;bottom=0;" vertex="1" parent="6vC1b3wF_2FrtxCGlfhA-15">
          <mxGeometry y="50" width="180" height="20" as="geometry" />
        </mxCell>
        <mxCell id="6vC1b3wF_2FrtxCGlfhA-20" value="" style="shape=partialRectangle;connectable=0;fillColor=none;top=0;left=0;bottom=0;right=0;editable=1;overflow=hidden;whiteSpace=wrap;html=1;" vertex="1" parent="6vC1b3wF_2FrtxCGlfhA-19">
          <mxGeometry width="30" height="20" as="geometry">
            <mxRectangle width="30" height="20" as="alternateBounds" />
          </mxGeometry>
        </mxCell>
        <mxCell id="6vC1b3wF_2FrtxCGlfhA-21" value="product_id" style="shape=partialRectangle;connectable=0;fillColor=none;top=0;left=0;bottom=0;right=0;align=left;spacingLeft=6;overflow=hidden;whiteSpace=wrap;html=1;" vertex="1" parent="6vC1b3wF_2FrtxCGlfhA-19">
          <mxGeometry x="30" width="150" height="20" as="geometry">
            <mxRectangle width="150" height="20" as="alternateBounds" />
          </mxGeometry>
        </mxCell>
        <mxCell id="6vC1b3wF_2FrtxCGlfhA-22" value="" style="shape=tableRow;horizontal=0;startSize=0;swimlaneHead=0;swimlaneBody=0;fillColor=none;collapsible=0;dropTarget=0;points=[[0,0.5],[1,0.5]];portConstraint=eastwest;top=0;left=0;right=0;bottom=0;" vertex="1" parent="6vC1b3wF_2FrtxCGlfhA-15">
          <mxGeometry y="70" width="180" height="30" as="geometry" />
        </mxCell>
        <mxCell id="6vC1b3wF_2FrtxCGlfhA-23" value="" style="shape=partialRectangle;connectable=0;fillColor=none;top=0;left=0;bottom=0;right=0;editable=1;overflow=hidden;whiteSpace=wrap;html=1;" vertex="1" parent="6vC1b3wF_2FrtxCGlfhA-22">
          <mxGeometry width="30" height="30" as="geometry">
            <mxRectangle width="30" height="30" as="alternateBounds" />
          </mxGeometry>
        </mxCell>
        <mxCell id="6vC1b3wF_2FrtxCGlfhA-24" value="disenio_id" style="shape=partialRectangle;connectable=0;fillColor=none;top=0;left=0;bottom=0;right=0;align=left;spacingLeft=6;overflow=hidden;whiteSpace=wrap;html=1;" vertex="1" parent="6vC1b3wF_2FrtxCGlfhA-22">
          <mxGeometry x="30" width="150" height="30" as="geometry">
            <mxRectangle width="150" height="30" as="alternateBounds" />
          </mxGeometry>
        </mxCell>
        <mxCell id="6vC1b3wF_2FrtxCGlfhA-29" value="" style="edgeStyle=entityRelationEdgeStyle;fontSize=12;html=1;endArrow=ERzeroToMany;startArrow=ERmandOne;rounded=0;exitX=0;exitY=0.5;exitDx=0;exitDy=0;entryX=1;entryY=0.5;entryDx=0;entryDy=0;" edge="1" parent="xj4MMqVDuvbluAutr-h8-1" source="xj4MMqVDuvbluAutr-h8-11" target="6vC1b3wF_2FrtxCGlfhA-19">
          <mxGeometry width="100" height="100" relative="1" as="geometry">
            <mxPoint x="-364" y="-566" as="sourcePoint" />
            <mxPoint x="-560" y="-530" as="targetPoint" />
            <Array as="points">
              <mxPoint x="-650" y="-780" />
              <mxPoint x="-670" y="-630" />
            </Array>
          </mxGeometry>
        </mxCell>
        <mxCell id="6vC1b3wF_2FrtxCGlfhA-30" value="" style="edgeStyle=entityRelationEdgeStyle;fontSize=12;html=1;endArrow=ERzeroToMany;startArrow=ERmandOne;rounded=0;entryX=1;entryY=0.5;entryDx=0;entryDy=0;exitX=0;exitY=0.5;exitDx=0;exitDy=0;" edge="1" parent="xj4MMqVDuvbluAutr-h8-1" source="6vC1b3wF_2FrtxCGlfhA-1" target="6vC1b3wF_2FrtxCGlfhA-22">
          <mxGeometry width="100" height="100" relative="1" as="geometry">
            <mxPoint x="-460" y="-420" as="sourcePoint" />
            <mxPoint x="-360" y="-520" as="targetPoint" />
          </mxGeometry>
        </mxCell>
        <mxCell id="xj4MMqVDuvbluAutr-h8-10" value="&lt;div style=&quot;color: rgb(191, 189, 182); background-color: rgb(13, 16, 23); font-family: Consolas, &amp;quot;Courier New&amp;quot;, monospace; font-weight: normal; font-size: 14px; line-height: 19px;&quot;&gt;pod_products&lt;/div&gt;" style="shape=table;startSize=30;container=1;collapsible=1;childLayout=tableLayout;fixedRows=1;rowLines=0;fontStyle=1;align=center;resizeLast=1;html=1;" vertex="1" parent="xj4MMqVDuvbluAutr-h8-1">
          <mxGeometry x="-342" y="-618" width="250" height="92.26580511773375" as="geometry" />
        </mxCell>
        <mxCell id="xj4MMqVDuvbluAutr-h8-11" value="" style="shape=tableRow;horizontal=0;startSize=0;swimlaneHead=0;swimlaneBody=0;fillColor=none;collapsible=0;dropTarget=0;points=[[0,0.5],[1,0.5]];portConstraint=eastwest;top=0;left=0;right=0;bottom=1;" vertex="1" parent="xj4MMqVDuvbluAutr-h8-10">
          <mxGeometry y="30" width="250" height="42" as="geometry" />
        </mxCell>
        <mxCell id="xj4MMqVDuvbluAutr-h8-12" value="PK" style="shape=partialRectangle;connectable=0;fillColor=none;top=0;left=0;bottom=0;right=0;fontStyle=1;overflow=hidden;whiteSpace=wrap;html=1;" vertex="1" parent="xj4MMqVDuvbluAutr-h8-11">
          <mxGeometry width="31.739162279212167" height="42" as="geometry">
            <mxRectangle width="31.739162279212167" height="42" as="alternateBounds" />
          </mxGeometry>
        </mxCell>
        <mxCell id="xj4MMqVDuvbluAutr-h8-13" value="pod_products_id INT NOT NULL" style="shape=partialRectangle;connectable=0;fillColor=none;top=0;left=0;bottom=0;right=0;align=left;spacingLeft=6;fontStyle=5;overflow=hidden;whiteSpace=wrap;html=1;" vertex="1" parent="xj4MMqVDuvbluAutr-h8-11">
          <mxGeometry x="31.739162279212167" width="218.26083772078783" height="42" as="geometry">
            <mxRectangle width="218.26083772078783" height="42" as="alternateBounds" />
          </mxGeometry>
        </mxCell>
        <mxCell id="xj4MMqVDuvbluAutr-h8-17" value="" style="shape=tableRow;horizontal=0;startSize=0;swimlaneHead=0;swimlaneBody=0;fillColor=none;collapsible=0;dropTarget=0;points=[[0,0.5],[1,0.5]];portConstraint=eastwest;top=0;left=0;right=0;bottom=0;" vertex="1" parent="xj4MMqVDuvbluAutr-h8-10">
          <mxGeometry y="72" width="250" height="20" as="geometry" />
        </mxCell>
        <mxCell id="xj4MMqVDuvbluAutr-h8-18" value="" style="shape=partialRectangle;connectable=0;fillColor=none;top=0;left=0;bottom=0;right=0;editable=1;overflow=hidden;whiteSpace=wrap;html=1;" vertex="1" parent="xj4MMqVDuvbluAutr-h8-17">
          <mxGeometry width="31.739162279212167" height="20" as="geometry">
            <mxRectangle width="31.739162279212167" height="20" as="alternateBounds" />
          </mxGeometry>
        </mxCell>
        <mxCell id="xj4MMqVDuvbluAutr-h8-19" value="json_info" style="shape=partialRectangle;connectable=0;fillColor=none;top=0;left=0;bottom=0;right=0;align=left;spacingLeft=6;overflow=hidden;whiteSpace=wrap;html=1;" vertex="1" parent="xj4MMqVDuvbluAutr-h8-17">
          <mxGeometry x="31.739162279212167" width="218.26083772078783" height="20" as="geometry">
            <mxRectangle width="218.26083772078783" height="20" as="alternateBounds" />
          </mxGeometry>
        </mxCell>
        <mxCell id="xj4MMqVDuvbluAutr-h8-31" value="products" style="shape=table;startSize=30;container=1;collapsible=1;childLayout=tableLayout;fixedRows=1;rowLines=0;fontStyle=1;align=center;resizeLast=1;fontColor=#e9e7d8;labelBackgroundColor=default;whiteSpace=wrap;" vertex="1" parent="xj4MMqVDuvbluAutr-h8-1">
          <mxGeometry x="-661" y="-898" width="260" height="137" as="geometry" />
        </mxCell>
        <mxCell id="xj4MMqVDuvbluAutr-h8-32" value="" style="shape=partialRectangle;collapsible=0;dropTarget=0;pointerEvents=0;fillColor=none;points=[[0,0.5],[1,0.5]];portConstraint=eastwest;top=0;left=0;right=0;bottom=1;" vertex="1" parent="xj4MMqVDuvbluAutr-h8-31">
          <mxGeometry y="30" width="260" height="30" as="geometry" />
        </mxCell>
        <mxCell id="xj4MMqVDuvbluAutr-h8-33" value="PK" style="shape=partialRectangle;overflow=hidden;connectable=0;fillColor=none;top=0;left=0;bottom=0;right=0;fontStyle=1;" vertex="1" parent="xj4MMqVDuvbluAutr-h8-32">
          <mxGeometry width="30" height="30" as="geometry">
            <mxRectangle width="30" height="30" as="alternateBounds" />
          </mxGeometry>
        </mxCell>
        <mxCell id="xj4MMqVDuvbluAutr-h8-34" value="product_id int NOT NULL " style="shape=partialRectangle;overflow=hidden;connectable=0;fillColor=none;top=0;left=0;bottom=0;right=0;align=left;spacingLeft=6;fontStyle=5;" vertex="1" parent="xj4MMqVDuvbluAutr-h8-32">
          <mxGeometry x="30" width="230" height="30" as="geometry">
            <mxRectangle width="230" height="30" as="alternateBounds" />
          </mxGeometry>
        </mxCell>
        <mxCell id="xj4MMqVDuvbluAutr-h8-38" value="" style="shape=partialRectangle;collapsible=0;dropTarget=0;pointerEvents=0;fillColor=none;points=[[0,0.5],[1,0.5]];portConstraint=eastwest;top=0;left=0;right=0;bottom=0;" vertex="1" parent="xj4MMqVDuvbluAutr-h8-31">
          <mxGeometry y="60" width="260" height="30" as="geometry" />
        </mxCell>
        <mxCell id="xj4MMqVDuvbluAutr-h8-39" value="" style="shape=partialRectangle;overflow=hidden;connectable=0;fillColor=none;top=0;left=0;bottom=0;right=0;" vertex="1" parent="xj4MMqVDuvbluAutr-h8-38">
          <mxGeometry width="30" height="30" as="geometry">
            <mxRectangle width="30" height="30" as="alternateBounds" />
          </mxGeometry>
        </mxCell>
        <mxCell id="xj4MMqVDuvbluAutr-h8-40" value="pod_product_id int NULL" style="shape=partialRectangle;overflow=hidden;connectable=0;fillColor=none;top=0;left=0;bottom=0;right=0;align=left;spacingLeft=6;" vertex="1" parent="xj4MMqVDuvbluAutr-h8-38">
          <mxGeometry x="30" width="230" height="30" as="geometry">
            <mxRectangle width="230" height="30" as="alternateBounds" />
          </mxGeometry>
        </mxCell>
        <mxCell id="UhIjKmEY3d05tXCgtlMl-4" value="" style="shape=partialRectangle;collapsible=0;dropTarget=0;pointerEvents=0;fillColor=none;points=[[0,0.5],[1,0.5]];portConstraint=eastwest;top=0;left=0;right=0;bottom=0;" vertex="1" parent="xj4MMqVDuvbluAutr-h8-31">
          <mxGeometry y="90" width="260" height="20" as="geometry" />
        </mxCell>
        <mxCell id="UhIjKmEY3d05tXCgtlMl-5" value="" style="shape=partialRectangle;overflow=hidden;connectable=0;fillColor=none;top=0;left=0;bottom=0;right=0;" vertex="1" parent="UhIjKmEY3d05tXCgtlMl-4">
          <mxGeometry width="30" height="20" as="geometry">
            <mxRectangle width="30" height="20" as="alternateBounds" />
          </mxGeometry>
        </mxCell>
        <mxCell id="UhIjKmEY3d05tXCgtlMl-6" value="product_type string&#xa;" style="shape=partialRectangle;overflow=hidden;connectable=0;fillColor=none;top=0;left=0;bottom=0;right=0;align=left;spacingLeft=6;" vertex="1" parent="UhIjKmEY3d05tXCgtlMl-4">
          <mxGeometry x="30" width="230" height="20" as="geometry">
            <mxRectangle width="230" height="20" as="alternateBounds" />
          </mxGeometry>
        </mxCell>
        <mxCell id="UhIjKmEY3d05tXCgtlMl-8" value="" style="shape=partialRectangle;collapsible=0;dropTarget=0;pointerEvents=0;fillColor=none;points=[[0,0.5],[1,0.5]];portConstraint=eastwest;top=0;left=0;right=0;bottom=0;" vertex="1" parent="xj4MMqVDuvbluAutr-h8-31">
          <mxGeometry y="110" width="260" height="20" as="geometry" />
        </mxCell>
        <mxCell id="UhIjKmEY3d05tXCgtlMl-9" value="" style="shape=partialRectangle;overflow=hidden;connectable=0;fillColor=none;top=0;left=0;bottom=0;right=0;" vertex="1" parent="UhIjKmEY3d05tXCgtlMl-8">
          <mxGeometry width="30" height="20" as="geometry">
            <mxRectangle width="30" height="20" as="alternateBounds" />
          </mxGeometry>
        </mxCell>
        <mxCell id="UhIjKmEY3d05tXCgtlMl-10" value="pod_product_id" style="shape=partialRectangle;overflow=hidden;connectable=0;fillColor=none;top=0;left=0;bottom=0;right=0;align=left;spacingLeft=6;" vertex="1" parent="UhIjKmEY3d05tXCgtlMl-8">
          <mxGeometry x="30" width="230" height="20" as="geometry">
            <mxRectangle width="230" height="20" as="alternateBounds" />
          </mxGeometry>
        </mxCell>
        <mxCell id="UhIjKmEY3d05tXCgtlMl-11" value="" style="edgeStyle=entityRelationEdgeStyle;fontSize=12;html=1;endArrow=ERmandOne;startArrow=ERmandOne;rounded=0;entryX=1;entryY=0.5;entryDx=0;entryDy=0;exitX=1;exitY=0.5;exitDx=0;exitDy=0;" edge="1" parent="xj4MMqVDuvbluAutr-h8-31" source="UhIjKmEY3d05tXCgtlMl-8" target="xj4MMqVDuvbluAutr-h8-32">
          <mxGeometry width="100" height="100" relative="1" as="geometry">
            <mxPoint x="350" y="120" as="sourcePoint" />
            <mxPoint x="450" y="20" as="targetPoint" />
            <Array as="points">
              <mxPoint x="260" y="130" />
            </Array>
          </mxGeometry>
        </mxCell>
        <mxCell id="enPGKUM9T6Q_cOFXvGr_-10" value="las printzones son las diferentes areas en las que se peude imprimir en un pod_type, ejemplo: en&amp;nbsp; una camiseta se puede imprimir en la parte delantera, trasera, mangas, etc&lt;br&gt;" style="shape=note;whiteSpace=wrap;html=1;backgroundOutline=1;fontColor=#000000;darkOpacity=0.05;fillColor=#FFF9B2;strokeColor=none;fillStyle=solid;direction=west;gradientDirection=north;gradientColor=#FFF2A1;shadow=1;size=20;pointerEvents=1;" vertex="1" parent="xj4MMqVDuvbluAutr-h8-1">
          <mxGeometry x="-52" y="-923" width="138" height="135" as="geometry" />
        </mxCell>
        <mxCell id="enPGKUM9T6Q_cOFXvGr_-11" value="print_zones" style="shape=table;startSize=30;container=1;collapsible=1;childLayout=tableLayout;fixedRows=1;rowLines=0;fontStyle=1;align=center;resizeLast=1;html=1;labelBackgroundColor=default;labelBorderColor=default;" vertex="1" parent="xj4MMqVDuvbluAutr-h8-1">
          <mxGeometry x="-271" y="-906" width="212" height="149.39" as="geometry" />
        </mxCell>
        <mxCell id="enPGKUM9T6Q_cOFXvGr_-12" value="" style="shape=tableRow;horizontal=0;startSize=0;swimlaneHead=0;swimlaneBody=0;fillColor=none;collapsible=0;dropTarget=0;points=[[0,0.5],[1,0.5]];portConstraint=eastwest;top=0;left=0;right=0;bottom=1;strokeColor=#D0CEE2;fontColor=#1A1A1A;" vertex="1" parent="enPGKUM9T6Q_cOFXvGr_-11">
          <mxGeometry y="30" width="212" height="29" as="geometry" />
        </mxCell>
        <mxCell id="enPGKUM9T6Q_cOFXvGr_-13" value="PK" style="shape=partialRectangle;connectable=0;fillColor=none;top=0;left=0;bottom=0;right=0;fontStyle=1;overflow=hidden;whiteSpace=wrap;html=1;strokeColor=#D0CEE2;fontColor=#1A1A1A;" vertex="1" parent="enPGKUM9T6Q_cOFXvGr_-12">
          <mxGeometry width="30" height="29" as="geometry">
            <mxRectangle width="30" height="29" as="alternateBounds" />
          </mxGeometry>
        </mxCell>
        <mxCell id="enPGKUM9T6Q_cOFXvGr_-14" value="print_zone_id int NOT NULL" style="shape=partialRectangle;connectable=0;fillColor=none;top=0;left=0;bottom=0;right=0;align=left;spacingLeft=6;fontStyle=5;overflow=hidden;whiteSpace=wrap;html=1;strokeColor=#D0CEE2;fontColor=#1A1A1A;" vertex="1" parent="enPGKUM9T6Q_cOFXvGr_-12">
          <mxGeometry x="30" width="182" height="29" as="geometry">
            <mxRectangle width="182" height="29" as="alternateBounds" />
          </mxGeometry>
        </mxCell>
        <mxCell id="enPGKUM9T6Q_cOFXvGr_-15" value="" style="shape=tableRow;horizontal=0;startSize=0;swimlaneHead=0;swimlaneBody=0;fillColor=none;collapsible=0;dropTarget=0;points=[[0,0.5],[1,0.5]];portConstraint=eastwest;top=0;left=0;right=0;bottom=0;strokeColor=#D0CEE2;fontColor=#1A1A1A;" vertex="1" parent="enPGKUM9T6Q_cOFXvGr_-11">
          <mxGeometry y="59" width="212" height="30" as="geometry" />
        </mxCell>
        <mxCell id="enPGKUM9T6Q_cOFXvGr_-16" value="" style="shape=partialRectangle;connectable=0;fillColor=none;top=0;left=0;bottom=0;right=0;editable=1;overflow=hidden;whiteSpace=wrap;html=1;strokeColor=#D0CEE2;fontColor=#1A1A1A;" vertex="1" parent="enPGKUM9T6Q_cOFXvGr_-15">
          <mxGeometry width="30" height="30" as="geometry">
            <mxRectangle width="30" height="30" as="alternateBounds" />
          </mxGeometry>
        </mxCell>
        <mxCell id="enPGKUM9T6Q_cOFXvGr_-17" value="product_id" style="shape=partialRectangle;connectable=0;fillColor=none;top=0;left=0;bottom=0;right=0;align=left;spacingLeft=6;overflow=hidden;whiteSpace=wrap;html=1;strokeColor=#D0CEE2;fontColor=#1A1A1A;" vertex="1" parent="enPGKUM9T6Q_cOFXvGr_-15">
          <mxGeometry x="30" width="182" height="30" as="geometry">
            <mxRectangle width="182" height="30" as="alternateBounds" />
          </mxGeometry>
        </mxCell>
        <mxCell id="enPGKUM9T6Q_cOFXvGr_-18" value="" style="shape=tableRow;horizontal=0;startSize=0;swimlaneHead=0;swimlaneBody=0;fillColor=none;collapsible=0;dropTarget=0;points=[[0,0.5],[1,0.5]];portConstraint=eastwest;top=0;left=0;right=0;bottom=0;strokeColor=#D0CEE2;fontColor=#1A1A1A;" vertex="1" parent="enPGKUM9T6Q_cOFXvGr_-11">
          <mxGeometry y="89" width="212" height="30" as="geometry" />
        </mxCell>
        <mxCell id="enPGKUM9T6Q_cOFXvGr_-19" value="" style="shape=partialRectangle;connectable=0;fillColor=none;top=0;left=0;bottom=0;right=0;editable=1;overflow=hidden;whiteSpace=wrap;html=1;strokeColor=#D0CEE2;fontColor=#1A1A1A;" vertex="1" parent="enPGKUM9T6Q_cOFXvGr_-18">
          <mxGeometry width="30" height="30" as="geometry">
            <mxRectangle width="30" height="30" as="alternateBounds" />
          </mxGeometry>
        </mxCell>
        <mxCell id="enPGKUM9T6Q_cOFXvGr_-20" value="mockup_s3_url varchar" style="shape=partialRectangle;connectable=0;fillColor=none;top=0;left=0;bottom=0;right=0;align=left;spacingLeft=6;overflow=hidden;whiteSpace=wrap;html=1;strokeColor=#D0CEE2;fontColor=#1A1A1A;" vertex="1" parent="enPGKUM9T6Q_cOFXvGr_-18">
          <mxGeometry x="30" width="182" height="30" as="geometry">
            <mxRectangle width="182" height="30" as="alternateBounds" />
          </mxGeometry>
        </mxCell>
        <mxCell id="enPGKUM9T6Q_cOFXvGr_-21" value="" style="shape=tableRow;horizontal=0;startSize=0;swimlaneHead=0;swimlaneBody=0;fillColor=none;collapsible=0;dropTarget=0;points=[[0,0.5],[1,0.5]];portConstraint=eastwest;top=0;left=0;right=0;bottom=0;strokeColor=#D0CEE2;fontColor=#1A1A1A;" vertex="1" parent="enPGKUM9T6Q_cOFXvGr_-11">
          <mxGeometry y="119" width="212" height="30" as="geometry" />
        </mxCell>
        <mxCell id="enPGKUM9T6Q_cOFXvGr_-22" value="" style="shape=partialRectangle;connectable=0;fillColor=none;top=0;left=0;bottom=0;right=0;editable=1;overflow=hidden;whiteSpace=wrap;html=1;strokeColor=#D0CEE2;fontColor=#1A1A1A;" vertex="1" parent="enPGKUM9T6Q_cOFXvGr_-21">
          <mxGeometry width="30" height="30" as="geometry">
            <mxRectangle width="30" height="30" as="alternateBounds" />
          </mxGeometry>
        </mxCell>
        <mxCell id="enPGKUM9T6Q_cOFXvGr_-23" value="coordinates" style="shape=partialRectangle;connectable=0;fillColor=none;top=0;left=0;bottom=0;right=0;align=left;spacingLeft=6;overflow=hidden;whiteSpace=wrap;html=1;strokeColor=#D0CEE2;fontColor=#1A1A1A;" vertex="1" parent="enPGKUM9T6Q_cOFXvGr_-21">
          <mxGeometry x="30" width="182" height="30" as="geometry">
            <mxRectangle width="182" height="30" as="alternateBounds" />
          </mxGeometry>
        </mxCell>
        <mxCell id="enPGKUM9T6Q_cOFXvGr_-24" value="" style="edgeStyle=entityRelationEdgeStyle;fontSize=12;html=1;endArrow=ERoneToMany;startArrow=ERzeroToOne;rounded=0;strokeColor=#736CA8;fontColor=#1A1A1A;entryX=0;entryY=0.5;entryDx=0;entryDy=0;exitX=1;exitY=0.5;exitDx=0;exitDy=0;" edge="1" parent="xj4MMqVDuvbluAutr-h8-1" source="xj4MMqVDuvbluAutr-h8-32" target="enPGKUM9T6Q_cOFXvGr_-15">
          <mxGeometry width="100" height="100" relative="1" as="geometry">
            <mxPoint x="-384" y="-771" as="sourcePoint" />
            <mxPoint x="-284" y="-871" as="targetPoint" />
          </mxGeometry>
        </mxCell>
        <mxCell id="QiTKMQxVK-ON733PPV3H-1" value="-PREGUNTAR A LUCHO:&lt;br&gt;-DROPSHIPPER / DISEÃADOR: SE VENDE LA IMAGEN SOLAMENTE O SE VENDE LA CAMISETA DISEÃADA&lt;br&gt;-QUE PASA CON LOS PRODUCTOS QUE LLEVAN NOMBRES PERSONALIZADOS, EN QUE MOMENTO SE DISEÃA? AL MONTAR LA ORDEN?" style="shape=note;whiteSpace=wrap;html=1;backgroundOutline=1;darkOpacity=0.05;fillColor=#a20025;strokeColor=#6F0000;fillStyle=solid;direction=west;gradientDirection=north;shadow=1;size=20;pointerEvents=1;fontColor=none;labelBackgroundColor=default;labelBorderColor=default;noLabel=1;" vertex="1" parent="xj4MMqVDuvbluAutr-h8-1">
          <mxGeometry x="-655" y="-1178" width="231" height="174" as="geometry" />
        </mxCell>
      </root>
    </mxGraphModel>
  </diagram>
  <diagram id="M5iF3l9SSYzyd_Rj3qhA" name="CASOS DE USO">
    <mxGraphModel dx="1750" dy="943" grid="0" gridSize="10" guides="1" tooltips="1" connect="1" arrows="1" fold="1" page="1" pageScale="1" pageWidth="827" pageHeight="1169" math="0" shadow="0">
      <root>
        <mxCell id="0" />
        <mxCell id="1" parent="0" />
        <mxCell id="NoBz114Fwssg4w4ElJxj-8" value="" style="edgeStyle=orthogonalEdgeStyle;rounded=0;orthogonalLoop=1;jettySize=auto;html=1;" edge="1" parent="1" source="q3DEEZbO-APV2h4yBJ7V-1" target="NoBz114Fwssg4w4ElJxj-7">
          <mxGeometry relative="1" as="geometry" />
        </mxCell>
        <mxCell id="q3DEEZbO-APV2h4yBJ7V-1" value="Proveedor&lt;br&gt;" style="shape=umlActor;verticalLabelPosition=bottom;verticalAlign=top;html=1;" vertex="1" parent="1">
          <mxGeometry x="79" y="37" width="30" height="60" as="geometry" />
        </mxCell>
        <mxCell id="NoBz114Fwssg4w4ElJxj-13" style="edgeStyle=orthogonalEdgeStyle;rounded=0;orthogonalLoop=1;jettySize=auto;html=1;entryX=0;entryY=0.5;entryDx=0;entryDy=0;exitX=0.5;exitY=0.5;exitDx=0;exitDy=0;exitPerimeter=0;" edge="1" parent="1" source="NoBz114Fwssg4w4ElJxj-9" target="NoBz114Fwssg4w4ElJxj-12">
          <mxGeometry relative="1" as="geometry" />
        </mxCell>
        <mxCell id="NoBz114Fwssg4w4ElJxj-9" value="Dropshiper" style="shape=umlActor;verticalLabelPosition=bottom;verticalAlign=top;html=1;" vertex="1" parent="1">
          <mxGeometry x="79" y="206" width="30" height="60" as="geometry" />
        </mxCell>
        <mxCell id="NoBz114Fwssg4w4ElJxj-16" style="edgeStyle=orthogonalEdgeStyle;rounded=0;orthogonalLoop=1;jettySize=auto;html=1;entryX=0;entryY=0.5;entryDx=0;entryDy=0;exitX=0.5;exitY=0.5;exitDx=0;exitDy=0;exitPerimeter=0;" edge="1" parent="1" source="NoBz114Fwssg4w4ElJxj-14" target="4GBxbwibSj7EmHAIKn39-10">
          <mxGeometry relative="1" as="geometry" />
        </mxCell>
        <mxCell id="NoBz114Fwssg4w4ElJxj-14" value="Operario" style="shape=umlActor;verticalLabelPosition=bottom;verticalAlign=top;html=1;" vertex="1" parent="1">
          <mxGeometry x="83" y="498" width="30" height="60" as="geometry" />
        </mxCell>
        <mxCell id="4GBxbwibSj7EmHAIKn39-1" value="" style="swimlane;startSize=0;strokeColor=#D0CEE2;fontColor=#1A1A1A;fillColor=#5D7F99;" vertex="1" parent="1">
          <mxGeometry x="350" y="5" width="286" height="726" as="geometry">
            <mxRectangle x="350" y="5" width="50" height="44" as="alternateBounds" />
          </mxGeometry>
        </mxCell>
        <mxCell id="NoBz114Fwssg4w4ElJxj-7" value="Crea Productos Pod Type" style="ellipse;whiteSpace=wrap;html=1;labelBackgroundColor=none;labelBorderColor=none;fillColor=#647687;fontColor=#ffffff;strokeColor=#314354;" vertex="1" parent="4GBxbwibSj7EmHAIKn39-1">
          <mxGeometry x="82" y="43" width="125" height="70" as="geometry" />
        </mxCell>
        <mxCell id="NoBz114Fwssg4w4ElJxj-12" value="Crea Productos POD" style="ellipse;whiteSpace=wrap;html=1;labelBackgroundColor=none;labelBorderColor=none;fontColor=#ffffff;fillColor=#647687;strokeColor=#314354;" vertex="1" parent="4GBxbwibSj7EmHAIKn39-1">
          <mxGeometry x="86" y="146" width="125" height="70" as="geometry" />
        </mxCell>
        <mxCell id="NoBz114Fwssg4w4ElJxj-15" value="Sube disenios al catalogo de disenios" style="ellipse;whiteSpace=wrap;html=1;labelBackgroundColor=none;labelBorderColor=none;fillColor=#647687;fontColor=#ffffff;strokeColor=#314354;" vertex="1" parent="4GBxbwibSj7EmHAIKn39-1">
          <mxGeometry x="86" y="411" width="125" height="74" as="geometry" />
        </mxCell>
        <mxCell id="4GBxbwibSj7EmHAIKn39-3" value="Crea ordenes(vende)" style="ellipse;whiteSpace=wrap;html=1;labelBackgroundColor=none;labelBorderColor=none;fontColor=#ffffff;fillColor=#647687;strokeColor=#314354;" vertex="1" parent="4GBxbwibSj7EmHAIKn39-1">
          <mxGeometry x="86" y="259" width="125" height="70" as="geometry" />
        </mxCell>
        <mxCell id="4GBxbwibSj7EmHAIKn39-8" value="POD DASHBOARD" style="text;html=1;strokeColor=none;fillColor=none;align=center;verticalAlign=middle;whiteSpace=wrap;rounded=0;fontColor=#1A1A1A;" vertex="1" parent="4GBxbwibSj7EmHAIKn39-1">
          <mxGeometry x="79" y="2" width="126" height="30" as="geometry" />
        </mxCell>
        <mxCell id="4GBxbwibSj7EmHAIKn39-10" value="Imprime DiseÃ±os(camisetas)" style="ellipse;whiteSpace=wrap;html=1;labelBackgroundColor=none;labelBorderColor=none;fillColor=#647687;fontColor=#ffffff;strokeColor=#314354;" vertex="1" parent="4GBxbwibSj7EmHAIKn39-1">
          <mxGeometry x="86" y="506" width="125" height="74" as="geometry" />
        </mxCell>
        <mxCell id="4GBxbwibSj7EmHAIKn39-12" value="Despacha ordenes" style="ellipse;whiteSpace=wrap;html=1;labelBackgroundColor=none;labelBorderColor=none;fillColor=#647687;fontColor=#ffffff;strokeColor=#314354;" vertex="1" parent="4GBxbwibSj7EmHAIKn39-1">
          <mxGeometry x="96" y="612" width="125" height="74" as="geometry" />
        </mxCell>
        <mxCell id="4GBxbwibSj7EmHAIKn39-7" style="edgeStyle=orthogonalEdgeStyle;rounded=0;orthogonalLoop=1;jettySize=auto;html=1;entryX=0;entryY=0.5;entryDx=0;entryDy=0;exitX=0.44;exitY=0.7;exitDx=0;exitDy=0;exitPerimeter=0;" edge="1" parent="1" source="NoBz114Fwssg4w4ElJxj-9" target="4GBxbwibSj7EmHAIKn39-3">
          <mxGeometry relative="1" as="geometry">
            <mxPoint x="112" y="244" as="sourcePoint" />
            <mxPoint x="446" y="186" as="targetPoint" />
          </mxGeometry>
        </mxCell>
        <mxCell id="4GBxbwibSj7EmHAIKn39-9" value="Diseniador" style="shape=umlActor;verticalLabelPosition=bottom;verticalAlign=top;html=1;" vertex="1" parent="1">
          <mxGeometry x="78" y="374" width="30" height="60" as="geometry" />
        </mxCell>
        <mxCell id="4GBxbwibSj7EmHAIKn39-11" value="Logistico" style="shape=umlActor;verticalLabelPosition=bottom;verticalAlign=top;html=1;" vertex="1" parent="1">
          <mxGeometry x="79" y="629" width="30" height="60" as="geometry" />
        </mxCell>
        <mxCell id="4GBxbwibSj7EmHAIKn39-14" style="edgeStyle=orthogonalEdgeStyle;rounded=0;orthogonalLoop=1;jettySize=auto;html=1;exitX=0.5;exitY=0.5;exitDx=0;exitDy=0;exitPerimeter=0;" edge="1" parent="1" source="4GBxbwibSj7EmHAIKn39-9" target="NoBz114Fwssg4w4ElJxj-15">
          <mxGeometry relative="1" as="geometry">
            <mxPoint x="42" y="411" as="sourcePoint" />
            <mxPoint x="396" y="404" as="targetPoint" />
          </mxGeometry>
        </mxCell>
        <mxCell id="4GBxbwibSj7EmHAIKn39-17" style="edgeStyle=orthogonalEdgeStyle;rounded=0;orthogonalLoop=1;jettySize=auto;html=1;entryX=0;entryY=0.5;entryDx=0;entryDy=0;exitX=0.5;exitY=0.5;exitDx=0;exitDy=0;exitPerimeter=0;" edge="1" parent="1" source="4GBxbwibSj7EmHAIKn39-11" target="4GBxbwibSj7EmHAIKn39-12">
          <mxGeometry relative="1" as="geometry">
            <mxPoint x="62" y="665" as="sourcePoint" />
            <mxPoint x="402" y="657" as="targetPoint" />
          </mxGeometry>
        </mxCell>
      </root>
    </mxGraphModel>
  </diagram>
</mxfile>
